<svg version="1.1" id="celsius" xmlns="http://www.w3.org/2000/svg" xmlns:xlink="http://www.w3.org/1999/xlink" x="0px" y="0px"
	 viewBox="0 0 512 512" style="enable-background:new 0 0 512 512;" xml:space="preserve" fill="currentColor">
		<rect x="289.391" y="133.565" width="189.217" height="33.391"/>
		<rect x="289.391" y="378.435" width="189.217" height="33.391"/>
		<rect x="144.696" y="100.171" width="33.391" height="33.391"/>
		<rect x="144.696" y="411.826" width="33.391" height="33.391"/>
		<polygon points="211.479,478.609 211.479,445.217 178.088,445.217 178.088,478.609 211.478,478.609 211.478,512 478.609,512
			478.609,478.609 		"/>
		<polygon points="211.478,33.388 211.478,66.779 178.088,66.779 178.088,100.171 211.479,100.171 211.479,66.779 478.609,66.779
			478.609,33.388 		"/>
		<rect x="111.304" y="133.565" width="33.391" height="278.261"/>
		<rect x="478.609" y="66.779" width="33.391" height="66.783"/>
		<rect x="478.609" y="411.826" width="33.391" height="66.783"/>
		<polygon points="256,345.043 256,200.348 222.609,200.348 222.609,345.047 255.997,345.047 255.997,378.435 289.388,378.435
			289.388,345.043 		"/>
		<rect x="256" y="166.957" width="33.391" height="33.391"/>
		<rect y="33.391" width="33.391" height="55.652"/>
		<rect x="33.391" width="55.652" height="33.391"/>
		<rect x="33.391" y="89.044" width="55.652" height="33.391"/>
		<rect x="89.044" y="33.391" width="33.391" height="55.652"/>
</svg>
