<svg version="1.1" id="cold" xmlns="http://www.w3.org/2000/svg" xmlns:xlink="http://www.w3.org/1999/xlink" x="0px" y="0px"
	 viewBox="0 0 512 512" style="enable-background:new 0 0 512 512;" xml:space="preserve" fill="currentColor">
		<rect x="133.565" y="244.87" width="33.391" height="33.391"/>
		<rect x="133.565" y="445.217" width="33.391" height="33.391"/>
		<rect x="166.957" y="478.609" width="178.087" height="33.391"/>
		<rect x="100.174" y="278.261" width="33.391" height="166.957"/>
		<rect x="345.043" y="244.87" width="33.391" height="33.391"/>
		<rect x="345.043" y="445.217" width="33.391" height="33.391"/>
		<rect x="378.435" y="278.261" width="33.391" height="166.957"/>
		<rect x="200.348" width="111.304" height="33.391"/>
		<rect x="166.957" y="33.391" width="33.391" height="211.478"/>
		<rect x="311.652" y="33.391" width="33.391" height="211.478"/>
		<polygon points="311.652,356.174 200.348,356.174 166.957,356.174 166.957,389.565 166.957,411.826 200.348,411.826
			200.348,389.565 311.652,389.565 311.652,411.826 345.043,411.826 345.043,389.565 345.043,356.174 		"/>
		<rect x="200.348" y="411.826" width="111.304" height="33.391"/>
</svg>
