<svg version="1.1" id="dead" xmlns="http://www.w3.org/2000/svg" xmlns:xlink="http://www.w3.org/1999/xlink" x="0px" y="0px"
	 viewBox="0 0 512 512" style="enable-background:new 0 0 512 512;" xml:space="preserve" fill="currentColor">
		<rect x="100.174" y="33.391" width="55.652" height="33.391"/>
		<rect x="66.783" y="66.783" width="33.391" height="33.391"/>
		<rect x="33.391" y="100.174" width="33.391" height="55.652"/>
		<rect x="33.391" y="356.174" width="33.391" height="55.652"/>
		<rect x="66.783" y="411.826" width="33.391" height="33.391"/>
		<rect x="100.174" y="445.217" width="55.652" height="33.391"/>
		<rect x="155.826" width="200.348" height="33.391"/>
		<rect x="155.826" y="478.609" width="200.348" height="33.391"/>
		<rect y="155.826" width="33.391" height="200.348"/>
		<rect x="356.174" y="33.391" width="55.652" height="33.391"/>
		<rect x="411.826" y="66.783" width="33.391" height="33.391"/>
		<rect x="445.217" y="100.174" width="33.391" height="55.652"/>
		<rect x="445.217" y="356.174" width="33.391" height="55.652"/>
		<rect x="411.826" y="411.826" width="33.391" height="33.391"/>
		<rect x="356.174" y="445.217" width="55.652" height="33.391"/>
		<rect x="478.609" y="155.826" width="33.391" height="200.348"/>
		<polygon points="155.826,189.217 155.826,144.696 122.435,144.696 122.435,189.217 77.913,189.217 77.913,222.609
			122.435,222.609 122.435,267.13 155.826,267.13 155.826,222.609 200.348,222.609 200.348,189.217 		"/>
		<polygon points="389.565,189.217 389.565,144.696 356.174,144.696 356.174,189.217 311.652,189.217 311.652,222.609
			356.174,222.609 356.174,267.13 389.565,267.13 389.565,222.609 434.087,222.609 434.087,189.217 		"/>
		<rect x="166.957" y="311.652" width="33.391" height="100.174"/>
		<rect x="311.652" y="311.652" width="33.391" height="100.174"/>
		<rect x="200.348" y="411.826" width="111.304" height="33.391"/>
		<rect x="200.348" y="278.261" width="111.304" height="33.391"/>
</svg>
