<svg version="1.1" id="gears" xmlns="http://www.w3.org/2000/svg" xmlns:xlink="http://www.w3.org/1999/xlink" x="0px" y="0px"
	 viewBox="0 0 512 512" style="enable-background:new 0 0 512 512;" xml:space="preserve" fill="currentColor">
		<rect x="200.348" y="133.565" width="111.304" height="33.391"/>
		<rect x="200.348" y="345.043" width="111.304" height="33.391"/>
		<rect x="345.043" y="200.348" width="33.391" height="111.304"/>
		<rect x="133.565" y="200.348" width="33.391" height="111.304"/>
		<rect x="166.957" y="166.957" width="33.391" height="33.391"/>
		<rect x="311.652" y="166.957" width="33.391" height="33.391"/>
		<rect x="166.957" y="311.652" width="33.391" height="33.391"/>
		<rect x="311.652" y="311.652" width="33.391" height="33.391"/>
		<polygon points="189.217,33.391 189.217,66.783 122.435,66.783 122.435,100.174 222.609,100.174 222.609,33.391 		"/>
		<rect x="33.391" y="66.783" width="33.391" height="55.652"/>
		<rect x="66.783" y="33.391" width="55.652" height="33.391"/>
		<rect x="389.565" y="33.391" width="55.652" height="33.391"/>
		<rect x="445.217" y="66.783" width="33.391" height="55.652"/>
		<polygon points="322.783,66.783 322.783,33.391 289.391,33.391 289.391,100.174 389.565,100.174 389.565,66.783 		"/>
		<rect x="222.609" width="66.783" height="33.391"/>
		<polygon points="33.391,289.391 33.391,322.783 66.783,322.783 66.783,389.565 100.174,389.565 100.174,289.391 		"/>
		<rect x="33.391" y="389.565" width="33.391" height="55.652"/>
		<rect x="66.783" y="445.217" width="55.652" height="33.391"/>
		<polygon points="289.391,411.826 289.391,478.609 322.783,478.609 322.783,445.217 389.565,445.217 389.565,411.826 		"/>
		<polygon points="411.826,289.391 411.826,389.565 445.217,389.565 445.217,322.783 478.609,322.783 478.609,289.391 		"/>
		<rect x="445.217" y="389.565" width="33.391" height="55.652"/>
		<rect x="389.565" y="445.217" width="55.652" height="33.391"/>
		<polygon points="122.435,411.826 122.435,445.217 189.217,445.217 189.217,478.609 222.609,478.609 222.609,411.826 		"/>
		<rect x="222.609" y="478.609" width="66.783" height="33.391"/>
			<polygon points="445.217,189.217 445.217,122.435 411.826,122.435 411.826,222.609 411.826,222.61 478.609,222.609
				478.609,189.217 			"/>
			<rect x="478.609" y="222.609" width="33.391" height="66.783"/>
			<rect y="222.609" width="33.391" height="66.783"/>
			<polygon points="66.783,122.435 66.783,189.217 33.391,189.217 33.391,222.609 100.174,222.609 100.174,122.435 			"/>
</svg>
