<svg version="1.1" id="gift" xmlns="http://www.w3.org/2000/svg" xmlns:xlink="http://www.w3.org/1999/xlink" x="0px" y="0px"
	 viewBox="0 0 512 512" style="enable-background:new 0 0 512 512;" xml:space="preserve" fill="currentColor">
		<rect x="166.957" y="33.391" width="33.391" height="33.391"/>
		<rect x="66.783" width="100.174" height="33.391"/>
		<rect x="311.652" y="33.391" width="33.391" height="33.391"/>
		<rect x="200.348" y="66.783" width="111.304" height="33.391"/>
			<rect x="345.043" width="100.174" height="33.391"/>
			<path d="M478.609,133.565V33.391h-33.391v100.174H345.043v-33.391h-33.391v33.391H200.348v-33.391h-33.391v33.391H66.783V33.391
				H33.391v100.174H0v33.391v33.391h33.391v-33.391h166.957v33.391H66.783H33.391v33.391v244.87h33.391v-244.87h133.565v244.87
				H66.783V512h378.435v-33.391H311.652v-244.87h133.565v244.87h33.391V200.348h-33.391H311.652v-33.391h166.957v33.391H512v-66.783
				H478.609z M278.261,478.609h-44.522v-244.87h44.522V478.609z M278.261,200.348h-44.522v-33.391h44.522V200.348z"/>
</svg>
