<svg version="1.1" id="hail" xmlns="http://www.w3.org/2000/svg" xmlns:xlink="http://www.w3.org/1999/xlink" x="0px" y="0px"
	 viewBox="0 0 512 512" style="enable-background:new 0 0 512 512;" xml:space="preserve" fill="currentColor">
			<rect x="33.391" y="289.391" width="33.391" height="33.391"/>
			<rect y="322.783" width="33.391" height="122.435"/>
		<rect x="189.217" y="289.391" width="33.391" height="33.391"/>
		<rect x="33.391" y="445.217" width="33.391" height="33.391"/>
		<rect x="189.217" y="445.217" width="33.391" height="33.391"/>
		<rect x="66.783" y="256" width="122.435" height="33.391"/>
		<rect x="66.783" y="478.609" width="122.435" height="33.391"/>
		<rect x="222.609" y="322.783" width="33.391" height="122.435"/>
		<rect x="378.435" width="33.391" height="33.391"/>
		<rect x="345.043" y="33.391" width="33.391" height="33.391"/>
		<rect x="311.652" y="66.783" width="33.391" height="33.391"/>
		<rect x="278.261" y="100.174" width="33.391" height="33.391"/>
		<rect x="478.609" y="44.522" width="33.391" height="33.391"/>
		<rect x="445.217" y="77.913" width="33.391" height="33.391"/>
		<rect x="411.826" y="111.304" width="33.391" height="33.391"/>
		<rect x="378.435" y="144.696" width="33.391" height="33.391"/>
		<rect x="345.043" y="178.087" width="33.391" height="33.391"/>
		<rect x="311.652" y="211.478" width="33.391" height="33.391"/>
		<rect x="289.391" y="311.652" width="33.391" height="77.913"/>
		<rect x="322.783" y="278.261" width="77.913" height="33.391"/>
		<rect x="322.783" y="389.565" width="77.913" height="33.391"/>
		<rect x="400.696" y="311.652" width="33.391" height="77.913"/>
		<rect x="89.044" y="111.304" width="33.391" height="77.913"/>
		<rect x="122.435" y="77.913" width="77.913" height="33.391"/>
		<rect x="122.435" y="189.217" width="77.913" height="33.391"/>
		<rect x="200.348" y="111.304" width="33.391" height="77.913"/>
</svg>
