<svg version="1.1" id="rain" xmlns="http://www.w3.org/2000/svg" xmlns:xlink="http://www.w3.org/1999/xlink" x="0px" y="0px"
	 viewBox="0 0 512 512" style="enable-background:new 0 0 512 512;" xml:space="preserve" fill="currentColor">
		<rect x="133.565" y="378.435" width="33.391" height="33.391"/>
		<rect x="100.174" y="411.826" width="33.391" height="33.391"/>
		<rect x="66.783" y="445.217" width="33.391" height="33.391"/>
		<rect x="33.391" y="478.609" width="33.391" height="33.391"/>
		<rect x="244.87" y="378.435" width="33.391" height="33.391"/>
		<rect x="211.478" y="411.826" width="33.391" height="33.391"/>
		<rect x="178.087" y="445.217" width="33.391" height="33.391"/>
		<rect x="144.696" y="478.609" width="33.391" height="33.391"/>
		<rect x="367.304" y="378.435" width="33.391" height="33.391"/>
		<rect x="333.913" y="411.826" width="33.391" height="33.391"/>
		<rect x="300.522" y="445.217" width="33.391" height="33.391"/>
		<rect x="267.13" y="478.609" width="33.391" height="33.391"/>
		<rect x="33.391" y="378.435" width="33.391" height="33.391"/>
		<rect y="411.826" width="33.391" height="33.391"/>
		<rect x="478.609" y="378.435" width="33.391" height="33.391"/>
		<rect x="445.217" y="411.826" width="33.391" height="33.391"/>
		<rect x="411.826" y="445.217" width="33.391" height="33.391"/>
		<rect x="378.435" y="478.609" width="33.391" height="33.391"/>
		<rect x="155.826" y="33.391" width="33.391" height="33.391"/>
		<rect x="33.391" y="155.826" width="33.391" height="33.391"/>
			<rect x="33.391" y="278.261" width="33.391" height="33.391"/>
			<rect y="189.217" width="33.391" height="89.043"/>
		<rect x="189.217" width="133.565" height="33.391"/>
			<polygon points="155.826,66.783 122.435,66.783 122.435,122.435 66.783,122.435 66.783,155.826 122.435,155.826 155.826,155.826
				155.826,122.435 			"/>
			<rect x="155.826" y="155.826" width="33.391" height="33.391"/>
			<rect x="445.217" y="278.261" width="33.391" height="33.391"/>
			<rect x="478.609" y="189.217" width="33.391" height="89.043"/>
		<rect x="66.783" y="311.652" width="378.435" height="33.391"/>
			<rect x="322.783" y="33.391" width="33.391" height="33.391"/>
			<polygon points="389.565,122.435 389.565,66.783 356.174,66.783 356.174,122.435 356.174,155.826 445.217,155.826
				445.217,122.435 			"/>
		<rect x="445.217" y="155.826" width="33.391" height="33.391"/>
		<rect x="322.783" y="155.826" width="33.391" height="33.391"/>
</svg>
