<svg version="1.1" id="search" xmlns="http://www.w3.org/2000/svg" xmlns:xlink="http://www.w3.org/1999/xlink" x="0px" y="0px"
	 viewBox="0 0 512 512" style="enable-background:new 0 0 512 512;" xml:space="preserve" fill="currentColor">
		<rect x="166.957" y="133.565" width="33.391" height="144.696"/>
		<rect x="233.739" y="66.783" width="144.696" height="33.391"/>
		<rect x="233.739" y="311.652" width="144.696" height="33.391"/>
		<rect x="411.826" y="133.565" width="33.391" height="144.696"/>
		<rect x="200.348" y="100.174" width="33.391" height="33.391"/>
		<rect x="200.348" y="278.261" width="33.391" height="33.391"/>
		<rect x="378.435" y="100.174" width="33.391" height="33.391"/>
		<rect x="378.435" y="278.261" width="33.391" height="33.391"/>
		<rect y="411.826" width="33.391" height="66.783"/>
		<polygon points="100.174,100.174 100.174,311.652 100.174,345.043 133.565,345.043 133.565,311.652 133.565,100.174 		"/>
		<rect x="66.783" y="345.043" width="33.391" height="33.391"/>
		<rect x="33.391" y="378.435" width="33.391" height="33.391"/>
		<rect x="33.391" y="478.609" width="66.783" height="33.391"/>
		<polygon points="200.348,378.435 166.957,378.435 166.957,411.826 200.348,411.826 411.826,411.826 411.826,378.435 		"/>
		<rect x="133.565" y="411.826" width="33.391" height="33.391"/>
		<rect x="100.174" y="445.217" width="33.391" height="33.391"/>
		<rect x="478.609" y="100.174" width="33.391" height="211.478"/>
		<rect x="200.348" width="211.478" height="33.391"/>
		<rect x="133.565" y="66.783" width="33.391" height="33.391"/>
		<rect x="166.957" y="33.391" width="33.391" height="33.391"/>
		<rect x="411.826" y="33.391" width="33.391" height="33.391"/>
		<rect x="445.217" y="66.783" width="33.391" height="33.391"/>
		<rect x="445.217" y="311.652" width="33.391" height="33.391"/>
		<rect x="411.826" y="345.043" width="33.391" height="33.391"/>
</svg>
