<svg version="1.1" id="shy" xmlns="http://www.w3.org/2000/svg" xmlns:xlink="http://www.w3.org/1999/xlink" x="0px" y="0px"
	 viewBox="0 0 512 512" style="enable-background:new 0 0 512 512;" xml:space="preserve" fill="currentColor">
		<rect x="166.957" y="345.043" width="178.087" height="33.391"/>
		<rect x="100.174" y="33.391" width="55.652" height="33.391"/>
		<rect x="66.783" y="66.783" width="33.391" height="33.391"/>
		<rect x="33.391" y="100.174" width="33.391" height="55.652"/>
		<rect x="33.391" y="356.174" width="33.391" height="55.652"/>
		<rect x="66.783" y="411.826" width="33.391" height="33.391"/>
		<rect x="100.174" y="445.217" width="55.652" height="33.391"/>
		<rect x="155.826" width="200.348" height="33.391"/>
		<rect x="155.826" y="478.609" width="200.348" height="33.391"/>
		<rect y="155.826" width="33.391" height="200.348"/>
		<rect x="356.174" y="33.391" width="55.652" height="33.391"/>
		<rect x="411.826" y="66.783" width="33.391" height="33.391"/>
		<rect x="445.217" y="100.174" width="33.391" height="55.652"/>
		<rect x="445.217" y="356.174" width="33.391" height="55.652"/>
		<rect x="411.826" y="411.826" width="33.391" height="33.391"/>
		<rect x="356.174" y="445.217" width="55.652" height="33.391"/>
		<rect x="478.609" y="155.826" width="33.391" height="200.348"/>
		<rect x="155.826" y="233.739" width="33.391" height="33.391"/>
		<rect x="122.435" y="200.348" width="33.391" height="33.391"/>
		<rect x="122.435" y="267.13" width="33.391" height="33.391"/>
		<rect x="89.044" y="166.957" width="33.391" height="33.391"/>
		<rect x="89.044" y="300.522" width="33.391" height="33.391"/>
		<rect x="311.652" y="233.739" width="33.391" height="33.391"/>
		<rect x="345.043" y="200.348" width="33.391" height="33.391"/>
		<rect x="345.043" y="267.13" width="33.391" height="33.391"/>
		<rect x="378.435" y="166.957" width="33.391" height="33.391"/>
		<rect x="378.435" y="300.522" width="33.391" height="33.391"/>
</svg>
