<svg version="1.1" id="star" xmlns="http://www.w3.org/2000/svg" xmlns:xlink="http://www.w3.org/1999/xlink" x="0px" y="0px"
	 viewBox="0 0 512 512" style="enable-background:new 0 0 512 512;" xml:space="preserve" fill="currentColor">
			<polygon points="0,200.348 0,256 33.391,256 33.391,200.348 133.565,200.348 133.565,166.957 0,166.957 			"/>
			<rect x="133.565" y="133.565" width="33.391" height="33.391"/>
		<rect x="33.391" y="256" width="33.391" height="33.391"/>
		<rect x="200.348" y="33.391" width="33.391" height="55.652"/>
		<rect x="166.957" y="89.044" width="33.391" height="44.522"/>
		<rect x="278.261" y="33.391" width="33.391" height="55.652"/>
		<rect x="311.652" y="89.044" width="33.391" height="44.522"/>
		<rect x="155.826" y="445.217" width="55.652" height="33.391"/>
		<polygon points="100.174,478.609 100.174,289.391 66.783,289.391 66.783,478.609 66.783,489.739 66.783,512 155.826,512
			155.826,478.609 		"/>
		<rect x="445.217" y="256" width="33.391" height="33.391"/>
		<polygon points="411.826,289.391 411.826,478.609 356.174,478.609 356.174,512 445.217,512 445.217,489.739 445.217,478.609
			445.217,289.391 		"/>
			<rect x="345.043" y="133.565" width="33.391" height="33.391"/>
			<polygon points="378.435,166.957 378.435,200.348 478.609,200.348 478.609,256 512,256 512,200.348 512,166.957 			"/>
		<rect x="300.522" y="445.217" width="55.652" height="33.391"/>
		<rect x="233.739" width="44.522" height="33.391"/>
		<rect x="211.478" y="411.826" width="89.043" height="33.391"/>
</svg>
