<svg version="1.1" id="tornado" xmlns="http://www.w3.org/2000/svg" xmlns:xlink="http://www.w3.org/1999/xlink" x="0px" y="0px"
	 viewBox="0 0 512 512" style="enable-background:new 0 0 512 512;" xml:space="preserve" fill="currentColor">
		<rect x="100.174" y="345.043" width="33.391" height="33.391"/>
		<rect x="378.435" y="278.261" width="33.391" height="33.391"/>
		<polygon points="345.043,311.652 345.043,378.435 278.261,378.435 278.261,411.826 345.043,411.826 378.435,411.826
			378.435,378.435 378.435,311.652 		"/>
		<rect x="378.435" y="411.826" width="33.391" height="33.391"/>
		<rect x="133.565" y="378.435" width="33.391" height="33.391"/>
		<rect x="166.957" y="411.826" width="33.391" height="33.391"/>
		<rect x="200.348" y="445.217" width="77.913" height="33.391"/>
		<rect x="411.826" y="244.87" width="33.391" height="33.391"/>
		<polygon points="411.826,445.217 411.826,478.609 278.261,478.609 278.261,512 411.826,512 445.217,512 445.217,478.609
			445.217,445.217 		"/>
		<rect x="66.783" y="278.261" width="33.391" height="66.783"/>
		<rect x="133.565" y="244.87" width="144.696" height="33.391"/>
		<rect x="200.348" y="311.652" width="111.304" height="33.391"/>
			<polygon points="33.391,66.783 33.391,278.261 66.783,278.261 66.783,178.087 100.174,178.087 100.174,144.696 66.783,144.696
				66.783,66.783 			"/>
			<rect x="66.783" y="33.391" width="33.391" height="33.391"/>
		<rect x="100.174" width="311.652" height="33.391"/>
			<rect x="100.174" y="178.087" width="311.652" height="33.391"/>
			<polygon points="445.217,66.781 445.217,33.391 411.826,33.391 411.826,66.783 445.217,66.783 445.217,144.696 411.826,144.696
				411.826,178.087 445.217,178.087 445.217,244.868 478.609,244.868 478.609,66.781 			"/>
</svg>
