<svg version="1.1" id="watch" xmlns="http://www.w3.org/2000/svg" xmlns:xlink="http://www.w3.org/1999/xlink" x="0px" y="0px"
	 viewBox="0 0 512 512" style="enable-background:new 0 0 512 512;" xml:space="preserve" fill="currentColor">
		<path d="M178.087,0v144.696h155.826V0H178.087z M300.522,111.304h-89.043V33.391h89.043V111.304z"/>
		<path d="M178.087,367.304V512h155.826V367.304H178.087z M300.522,478.609h-89.043v-77.913h89.043V478.609z"/>
		<rect x="111.304" y="178.087" width="33.391" height="155.826"/>
		<rect x="367.304" y="178.087" width="33.391" height="155.826"/>
		<rect x="144.696" y="144.696" width="33.391" height="33.391"/>
		<rect x="333.913" y="144.696" width="33.391" height="33.391"/>
		<rect x="144.696" y="333.913" width="33.391" height="33.391"/>
		<rect x="333.913" y="333.913" width="33.391" height="33.391"/>
		<polygon points="244.87,178.087 244.87,244.87 211.478,244.87 211.478,278.261 278.261,278.261 278.261,178.087 		"/>
</svg>
