<svg version="1.1" id="wet" xmlns="http://www.w3.org/2000/svg" xmlns:xlink="http://www.w3.org/1999/xlink" x="0px" y="0px"
	 viewBox="0 0 512 512" style="enable-background:new 0 0 512 512;" xml:space="preserve" fill="currentColor">
		<rect x="100.174" y="200.348" width="33.391" height="66.783"/>
		<rect x="133.565" y="133.565" width="33.391" height="66.783"/>
		<rect x="166.957" y="66.783" width="33.391" height="66.783"/>
		<rect x="200.348" y="33.391" width="33.391" height="33.391"/>
		<rect x="233.739" width="44.522" height="33.391"/>
		<rect x="378.435" y="200.348" width="33.391" height="66.783"/>
		<rect x="345.043" y="133.565" width="33.391" height="66.783"/>
			<rect x="311.652" y="66.783" width="33.391" height="66.783"/>
			<rect x="278.261" y="33.391" width="33.391" height="33.391"/>
		<rect x="345.043" y="445.217" width="33.391" height="33.391"/>
		<rect x="378.435" y="411.826" width="33.391" height="33.391"/>
		<rect x="166.957" y="478.609" width="178.087" height="33.391"/>
		<rect x="411.826" y="267.13" width="33.391" height="144.696"/>

		<rect x="133.565" y="445.217" width="33.391" height="33.391"/>
		<rect x="100.174" y="411.826" width="33.391" height="33.391"/>
		<rect x="66.783" y="267.13" width="33.391" height="144.696"/>
</svg>
